# xmcd CD database file
#
# Track frame offsets:
#	150
#	11215
#	20740
#	29957
#	41572
#	52625
#	61820
#	74070
#	84550
#	96417
#	107645
#	118687
#
# Disc length: 1704 seconds
#
# Revision: 0
# Processed by: cddbd v1.4PL0 Copyright (c) Steve Scherf et al.
# Submitted via: CDex 1.40Release
#
DISCID=a806a60c
DTITLE=Buck Owens - Under Your Spell Again
DYEAR=1900
DGENRE=Country
TTITLE0=Above And Beyond
TTITLE1=Second Fiddle
TTITLE2=Tired Of Living
TTITLE3=I Gotta Right To Know
TTITLE4=Excuse Me
TTITLE5=I'll Give My Heart To You
TTITLE6=Under Your Spell Again
TTITLE7=My Everlasting Love
TTITLE8=Take Me Back Again
TTITLE9=Till These Dreams Come True
TTITLE10=Walk The Floor
TTITLE11=I'll Take A Chance On Loving You
EXTD=ID3G: 2
EXTT0=
EXTT1=
EXTT2=
EXTT3=
EXTT4=
EXTT5=
EXTT6=
EXTT7=
EXTT8=
EXTT9=
EXTT10=
EXTT11=
PLAYORDER=
